<?xml version="1.0" encoding="iso-8859-1"?>
<!-- Generator: Adobe Illustrator 22.1.0, SVG Export Plug-In . SVG Version: 6.00 Build 0)  -->
<svg xmlns="http://www.w3.org/2000/svg" xmlns:xlink="http://www.w3.org/1999/xlink" version="1.1" id="Layer_3" x="0px" y="0px" viewBox="0 0 64 64" style="enable-background:new 0 0 64 64;" xml:space="preserve" width="512" height="512">
<g>
	<circle cx="25" cy="14" r="2"/>
	<circle cx="39" cy="14" r="2"/>
	<path d="M31.844,29h0.312c3.367,0,6.627-0.987,9.43-2.855l1.969-1.313l-1.109-1.664l-1.969,1.313   C38.003,26.129,35.126,27,32.156,27h-0.312c-2.971,0-5.848-0.871-8.32-2.519l-1.969-1.313l-1.109,1.664l1.969,1.313   C25.217,28.013,28.478,29,31.844,29z"/>
	<path d="M60,33c1.654,0,3-1.346,3-3v-8h-2v8c0,0.551-0.449,1-1,1h-0.452L59,7.976c-0.002-0.099-0.02-0.198-0.051-0.292l-2-6   C56.812,1.275,56.431,1,56,1s-0.812,0.275-0.949,0.684l-2,6C53.02,7.778,53.002,7.877,53,7.976L52.452,31H52c-0.551,0-1-0.449-1-1   v-8c0-2.831-1.794-5.484-5.068-7.513C45.36,6.273,39.941,1,32,1S18.64,6.273,18.068,14.487C14.794,16.516,13,19.169,13,22v8   c0,0.551-0.449,1-1,1h-0.452L11,7.976c-0.002-0.099-0.02-0.198-0.051-0.292l-2-6C8.812,1.275,8.431,1,8,1S7.188,1.275,7.051,1.684   l-2,6C5.02,7.778,5.002,7.877,5,7.976L4.452,31H4c-0.551,0-1-0.449-1-1v-8H1v8c0,1.654,1.346,3,3,3h0.405l-0.087,3.657   C2.336,37.657,1,39.698,1,42c0,2.183,1.191,4.164,3.066,5.219L4,49.976c-0.007,0.27,0.096,0.53,0.284,0.723   C4.473,50.891,4.73,51,5,51h6c0.27,0,0.527-0.109,0.715-0.301c0.188-0.193,0.291-0.453,0.284-0.723l-0.108-4.516   c0.563-0.794,0.925-1.692,1.054-2.646L15,42.358v0.5c0,2.76,1.021,5.357,2.865,7.385l-2.814,8.441C15.017,58.786,15,58.893,15,59   c0,2.206,1.794,4,4,4h6c0.379,0,0.725-0.214,0.895-0.553L29.618,55h4.764l3.724,7.447C38.275,62.786,38.621,63,39,63h6   c2.206,0,4-1.794,4-4c0-0.107-0.017-0.214-0.051-0.316l-2.814-8.441C47.979,48.215,49,45.618,49,42.858v-0.5l2.054,0.456   c0.129,0.954,0.491,1.853,1.054,2.646L52,49.976c-0.007,0.27,0.096,0.53,0.284,0.723C52.473,50.891,52.73,51,53,51h6   c0.27,0,0.527-0.109,0.715-0.301c0.188-0.193,0.291-0.453,0.284-0.723l-0.066-2.757C61.809,46.164,63,44.183,63,42   c0-2.302-1.336-4.343-3.318-5.343L59.595,33H60z M54.996,8.174L56,5.162l1.004,3.012L57.547,31h-3.095L54.996,8.174z M52,33h0.405   l-0.036,1.516l-4.377-2.387l0.002-0.019l-0.045-0.005l-3.369-1.837c1.837-0.931,3.336-2.057,4.42-3.318V30   C49,31.654,50.346,33,52,33z M57.881,45h-3.762l0.127-5.34l3.593,3.593L57.881,45z M46.006,56.179l-7.998,1.6l-0.597-1.195   l7.857-2.619L46.006,56.179z M18.733,53.965l7.857,2.619l-0.597,1.195l-7.998-1.6L18.733,53.965z M6.161,43.253l3.593-3.593   L9.881,45H6.119L6.161,43.253z M15.332,40.235l-1.896-4.425l2.812-1.534l0.624,5.616L15.332,40.235z M18.834,39.457l-0.69-6.214   l3.606-1.967c0.571,0.209,1.158,0.408,1.774,0.583l-3.233,7.275L18.834,39.457z M38.624,32.615l2.529,5.691L37.764,40H33v-5.054   C34.955,34.744,36.868,33.946,38.624,32.615z M31,40h-4.764l-3.389-1.695l2.529-5.691c1.755,1.331,3.669,2.129,5.624,2.331V40z    M21.97,40.279l0.064-0.144l3.519,1.759C25.691,41.964,25.845,42,26,42h5v3.184c-1.161,0.414-2,1.514-2,2.816   c0,0.352,0.072,0.686,0.184,1h-0.022l-8.054-2.685L21.97,40.279z M31,48c0-0.551,0.449-1,1-1s1,0.449,1,1s-0.449,1-1,1   S31,48.551,31,48z M33,45.184V42h5c0.155,0,0.309-0.036,0.447-0.105l3.519-1.759l0.064,0.144l0.862,6.036L34.838,49h-0.022   C34.928,48.686,35,48.352,35,48C35,46.698,34.161,45.598,33,45.184z M43.709,39.133l-3.233-7.275   c0.616-0.175,1.203-0.374,1.774-0.583l3.606,1.967l-0.69,6.214L43.709,39.133z M47.129,39.893l0.624-5.616l2.812,1.534   l-1.896,4.425L47.129,39.893z M32,3c5.179,0,9.017,2.507,10.826,6.791l-4.661-0.777C38.003,8.986,37.838,9,37.684,9.051L32,10.946   l-5.684-1.895C26.162,9,25.998,8.987,25.835,9.014l-4.661,0.777C22.983,5.507,26.821,3,32,3z M20.036,15.116   c0.049-1.13,0.206-2.187,0.444-3.182l5.44-0.906l5.764,1.921C31.787,12.983,31.893,13,32,13s0.213-0.017,0.316-0.051l5.764-1.921   l5.44,0.906c0.238,0.995,0.395,2.051,0.444,3.182c0.015,0.342,0.203,0.652,0.499,0.823c0.397,0.229,0.765,0.469,1.113,0.714   l-4.553,1.301l-2.936-0.979C36.146,16.328,34.125,16,32.079,16h-0.158c-2.045,0-4.067,0.328-6.008,0.975l-2.936,0.979l-4.553-1.301   c0.348-0.245,0.716-0.485,1.113-0.714C19.833,15.768,20.021,15.458,20.036,15.116z M16.638,18.222l6.087,1.739   c0.194,0.056,0.4,0.052,0.591-0.013l3.229-1.076C28.282,18.293,30.091,18,31.921,18h0.158c1.83,0,3.639,0.293,5.375,0.873   l3.229,1.076C40.786,19.983,40.893,20,41,20c0.092,0,0.185-0.013,0.275-0.039l6.087-1.739C48.424,19.405,49,20.69,49,22   c0,3.561-4.227,6.896-10.518,8.3c-0.162,0.036-0.312,0.112-0.438,0.221c-3.737,3.243-8.353,3.243-12.09,0   c-0.125-0.108-0.275-0.185-0.438-0.221C19.227,28.896,15,25.561,15,22C15,20.69,15.576,19.405,16.638,18.222z M12,33   c1.654,0,3-1.346,3-3v-3.05c1.084,1.261,2.583,2.387,4.42,3.318l-3.369,1.837l-0.045,0.005l0.002,0.019l-4.377,2.387L11.595,33H12z    M6.996,8.174L8,5.162l1.004,3.012L9.547,31H6.453L6.996,8.174z M9.595,33l0.093,3.898L6.23,40.356L6.405,33H9.595z M3,42   c0-1.127,0.483-2.16,1.259-2.897l-0.135,5.666C3.421,44.037,3,43.055,3,42z M6.024,49l0.048-2h3.857l0.048,2H6.024z M11.786,41.023   l-0.1-4.218l1.659,3.871L11.786,41.023z M17,42.858v-0.944l2.806-0.623l-0.782,5.478l-0.409,1.226   C17.569,46.496,17,44.722,17,42.858z M24.382,61H19c-1.054,0-1.919-0.819-1.995-1.854l0.352-1.055l7.708,1.542L24.382,61z M29,53   c-0.379,0-0.725,0.214-0.895,0.553l-0.612,1.224l-8.128-2.709l1.267-3.802l8.051,2.684C28.786,50.983,28.893,51,29,51h6   c0.107,0,0.214-0.017,0.316-0.051l8.051-2.684l1.267,3.802l-8.128,2.709l-0.612-1.224C35.725,53.214,35.379,53,35,53H29z M45,61   h-5.382l-0.684-1.367l7.708-1.542l0.352,1.055C46.919,60.181,46.054,61,45,61z M47,42.858c0,1.864-0.569,3.638-1.615,5.136   l-0.409-1.226l-0.782-5.478L47,41.914V42.858z M50.655,40.677l1.659-3.871l-0.1,4.218L50.655,40.677z M54.024,49l0.048-2h3.857   l0.048,2H54.024z M61,42c0,1.055-0.421,2.037-1.124,2.769l-0.135-5.666C60.517,39.84,61,40.873,61,42z M57.77,40.356l-3.458-3.458   L54.405,33h3.19L57.77,40.356z"/>
</g>
</svg>
