<?xml version="1.0" encoding="iso-8859-1"?>
<!-- Generator: Adobe Illustrator 22.1.0, SVG Export Plug-In . SVG Version: 6.00 Build 0)  -->
<svg xmlns="http://www.w3.org/2000/svg" xmlns:xlink="http://www.w3.org/1999/xlink" version="1.1" id="Layer_3" x="0px" y="0px" viewBox="0 0 64 64" style="enable-background:new 0 0 64 64;" xml:space="preserve" width="512" height="512">
<g>
	<circle cx="25" cy="14" r="2"/>
	<circle cx="39" cy="14" r="2"/>
	<path d="M32.156,29c3.367,0,6.627-0.987,9.43-2.855l1.969-1.313l-1.109-1.664l-1.969,1.313C38.003,26.129,35.126,27,32.156,27   h-0.312c-2.971,0-5.848-0.871-8.32-2.519l-1.969-1.313l-1.109,1.664l1.969,1.313C25.217,28.013,28.478,29,31.844,29H32.156z"/>
	<path d="M62,35c0.552,0,1-0.448,1-1v-4c0-0.552-0.448-1-1-1h-2V8c0-0.197-0.059-0.391-0.168-0.555l-4-6   c-0.245-0.367-0.701-0.532-1.122-0.402C54.289,1.17,54,1.56,54,2v27h-2c-0.552,0-1,0.448-1,1v3.097l-6.248-2.916   C48.666,28.147,51,25.214,51,22c0-2.831-1.794-5.484-5.068-7.513C45.36,6.273,39.941,1,32,1S18.64,6.273,18.068,14.487   C14.794,16.516,13,19.169,13,22c0,3.214,2.334,6.147,6.248,8.181L13,33.097V30c0-0.552-0.448-1-1-1h-2V2   c0-0.44-0.289-0.83-0.71-0.957C8.868,0.914,8.413,1.079,8.168,1.445l-4,6C4.059,7.609,4,7.803,4,8v21H2c-0.552,0-1,0.448-1,1v4   c0,0.552,0.448,1,1,1h2v1.816c-1.837,1.064-3,3.026-3,5.183c0,2.095,1.181,4.079,3,5.161V50c0,0.552,0.448,1,1,1h4   c0.552,0,1-0.448,1-1v-2.81c1.606-0.928,2.694-2.544,2.945-4.376L15,42.358v0.5c0,2.76,1.021,5.357,2.865,7.385l-2.814,8.441   C15.017,58.786,15,58.893,15,59c0,2.206,1.794,4,4,4h6c0.379,0,0.725-0.214,0.895-0.553L29.618,55h4.764l3.724,7.447   C38.275,62.786,38.621,63,39,63h6c2.206,0,4-1.794,4-4c0-0.107-0.017-0.214-0.051-0.316l-2.814-8.441   C47.979,48.215,49,45.618,49,42.858v-0.5l2.055,0.457c0.251,1.832,1.339,3.448,2.945,4.376V50c0,0.552,0.448,1,1,1h4   c0.552,0,1-0.448,1-1v-2.843c1.838-1.085,3-3.039,3-5.158c0-2.164-1.16-4.123-3-5.186V35H62z M56,5.303l2,3V29h-2V5.303z M53,31h2   h4h2v2h-2h-4h-2V31z M47.129,39.893l0.676-6.081l3.014,1.406l-2.15,5.016L47.129,39.893z M45.892,32.92l-0.726,6.537l-1.457-0.324   l-3.233-7.275c0.64-0.182,1.248-0.389,1.84-0.607L45.892,32.92z M46.006,56.179l-7.998,1.6l-0.597-1.195l7.857-2.619L46.006,56.179   z M18.733,53.965l7.857,2.619l-0.597,1.195l-7.998-1.6L18.733,53.965z M25.376,32.615c1.755,1.331,3.668,2.129,5.624,2.331V40   h-4.764l-3.389-1.695L25.376,32.615z M38.624,32.615l2.529,5.691L37.764,40H33v-5.054C34.955,34.744,36.869,33.946,38.624,32.615z    M21.97,40.279l0.064-0.144l3.519,1.759C25.691,41.964,25.845,42,26,42h5v3.184c-1.161,0.414-2,1.514-2,2.816   c0,0.352,0.072,0.686,0.184,1h-0.022l-8.054-2.685L21.97,40.279z M31,48c0-0.551,0.449-1,1-1s1,0.449,1,1s-0.449,1-1,1   S31,48.551,31,48z M33,45.184V42h5c0.155,0,0.309-0.036,0.447-0.105l3.519-1.759l0.064,0.144l0.862,6.036L34.838,49h-0.022   C34.928,48.686,35,48.352,35,48C35,46.698,34.161,45.598,33,45.184z M32,3c5.179,0,9.017,2.507,10.826,6.791l-4.661-0.777   C38.003,8.986,37.838,9,37.684,9.051L32,10.946l-5.684-1.895C26.162,9,25.998,8.987,25.835,9.014l-4.661,0.777   C22.983,5.507,26.821,3,32,3z M20.036,15.116c0.049-1.13,0.206-2.187,0.444-3.182l5.44-0.906l5.764,1.921   C31.787,12.983,31.893,13,32,13s0.213-0.017,0.316-0.051l5.764-1.921l5.44,0.906c0.238,0.995,0.395,2.051,0.444,3.182   c0.015,0.342,0.203,0.652,0.499,0.823c0.397,0.229,0.765,0.469,1.113,0.714l-4.553,1.301l-2.936-0.979   C36.146,16.328,34.125,16,32.079,16h-0.158c-2.045,0-4.067,0.328-6.008,0.975l-2.936,0.979l-4.553-1.301   c0.348-0.245,0.716-0.485,1.113-0.714C19.833,15.768,20.021,15.458,20.036,15.116z M15,22c0-1.31,0.576-2.595,1.638-3.778   l6.087,1.739c0.194,0.056,0.401,0.052,0.591-0.013l3.229-1.076C28.282,18.293,30.091,18,31.921,18h0.158   c1.83,0,3.639,0.293,5.375,0.873l3.229,1.076C40.786,19.983,40.893,20,41,20c0.092,0,0.185-0.013,0.275-0.039l6.087-1.739   C48.424,19.405,49,20.69,49,22c0,3.561-4.227,6.896-10.518,8.3c-0.162,0.036-0.312,0.112-0.438,0.221   c-3.735,3.244-8.354,3.244-12.089,0c-0.125-0.108-0.276-0.185-0.438-0.221C19.227,28.896,15,25.561,15,22z M23.524,31.858   l-3.233,7.275l-1.457,0.324l-0.726-6.537l3.576-1.669C22.276,31.47,22.884,31.676,23.524,31.858z M15.332,40.235l-2.15-5.016   l3.014-1.406l0.676,6.081L15.332,40.235z M6,8.303l2-3V29H6V8.303z M3,31h2h4h2v2H9H5H3V31z M3,41.999c0-0.994,0.368-1.929,1-2.646   v5.24C3.374,43.873,3,42.953,3,41.999z M8,49H6V35h2V49z M11.783,41.024C11.326,41.125,11,41.531,11,42c0,0.994-0.368,1.93-1,2.647   v-7.943l1.369-0.639l1.976,4.612L11.783,41.024z M17,42.858v-0.944l2.806-0.623l-0.782,5.478l-0.409,1.226   C17.569,46.496,17,44.722,17,42.858z M24.382,61H19c-1.054,0-1.919-0.819-1.995-1.854l0.352-1.055l7.708,1.542L24.382,61z M29,53   c-0.379,0-0.725,0.214-0.895,0.553l-0.612,1.224l-8.128-2.709l1.267-3.802l8.051,2.684C28.786,50.983,28.893,51,29,51h6   c0.107,0,0.214-0.017,0.316-0.051l8.051-2.684l1.267,3.802l-8.128,2.709l-0.612-1.224C35.725,53.214,35.379,53,35,53H29z M45,61   h-5.382l-0.684-1.367l7.708-1.542l0.352,1.055C46.919,60.181,46.054,61,45,61z M47,42.858c0,1.864-0.569,3.638-1.615,5.136   l-0.409-1.226l-0.782-5.478L47,41.913V42.858z M53,42c0-0.469-0.326-0.875-0.783-0.976l-1.562-0.347l1.976-4.612L54,36.704v7.943   C53.368,43.929,53,42.994,53,42z M61,41.999c0,0.949-0.373,1.873-1,2.595v-5.239C60.631,40.071,61,41.003,61,41.999z M58,49h-2V35   h2V49z"/>
</g>
</svg>
